<svg width="108" height="25" viewBox="0 0 108 25" fill="none" xmlns="http://www.w3.org/2000/svg">
<path fill-rule="evenodd" clip-rule="evenodd" d="M7.33214 4.7838C9.10994 3.47126 11.2707 2.76235 13.4908 2.76318C15.7104 2.76296 17.8704 3.47214 19.6476 4.78458C21.4248 6.09701 22.7237 7.94215 23.3498 10.0439C23.9759 12.1456 23.8956 14.391 23.121 16.444C22.3464 18.4969 20.919 20.2471 19.0525 21.4327L17.5729 16.6939C18.3219 15.9073 18.8215 14.9216 19.0099 13.8582C19.1982 12.7949 19.0673 11.7004 18.6332 10.7096C18.199 9.71879 17.4806 8.87502 16.5666 8.28226C15.6525 7.68951 14.5827 7.37366 13.4889 7.37366C12.3952 7.37366 11.3254 7.68951 10.4113 8.28226C9.49725 8.87502 8.77887 9.71879 8.34472 10.7096C7.91058 11.7004 7.77963 12.7949 7.96803 13.8582C8.15643 14.9216 8.65594 15.9073 9.40499 16.6939L7.92909 21.4346C6.06174 20.2493 4.63356 18.499 3.85836 16.4457C3.08317 14.3924 3.00265 12.1464 3.62886 10.0442C4.25507 7.94188 5.55433 6.09633 7.33214 4.7838ZM2.25503 6.3026C1.05003 8.29948 0.413698 10.5804 0.413208 12.9046C0.412917 15.4056 1.14866 17.8527 2.53101 19.9487C3.91337 22.0446 5.88281 23.6992 8.19999 24.7112C8.38102 24.7904 8.57703 24.8309 8.77509 24.83C8.97314 24.829 9.16874 24.7866 9.34898 24.7056C9.52922 24.6246 9.69002 24.5068 9.82075 24.3599C9.95149 24.2131 10.0492 24.0406 10.1074 23.8538L12.3493 16.6607C12.4351 16.3858 12.4318 16.0914 12.3401 15.8184C12.2483 15.5454 12.0726 15.3074 11.8374 15.1376C11.3601 14.7934 11.0054 14.309 10.8238 13.7537C10.6423 13.1985 10.6434 12.6008 10.8268 12.0462C11.0103 11.4915 11.3667 11.0083 11.8452 10.6657C12.3237 10.3231 12.8997 10.1386 13.4908 10.1386C14.082 10.1386 14.658 10.3231 15.1364 10.6657C15.6149 11.0083 15.9714 11.4915 16.1548 12.0462C16.3383 12.6008 16.3393 13.1985 16.1578 13.7537C15.9763 14.309 15.6215 14.7934 15.1442 15.1376C14.9093 15.3077 14.734 15.5457 14.6426 15.8187C14.5512 16.0917 14.5482 16.386 14.6342 16.6607L16.876 23.8538C16.9343 24.0403 17.032 24.2127 17.1626 24.3593C17.2932 24.506 17.4538 24.6237 17.6338 24.7047C17.8138 24.7857 18.0092 24.8281 18.207 24.8293C18.4049 24.8304 18.6007 24.7901 18.7816 24.7112C20.9352 23.7709 22.7915 22.2741 24.1547 20.3788C25.5178 18.4836 26.3371 16.2603 26.5262 13.9436C26.7153 11.6268 26.267 9.30274 25.2288 7.21662C24.1905 5.13049 22.6008 3.35977 20.6275 2.0914C18.6542 0.823034 16.3705 0.104089 14.0175 0.0104765C11.6646 -0.0831365 9.32966 0.452055 7.25932 1.55955C5.18897 2.66704 3.46003 4.30573 2.25503 6.3026ZM47.1541 21V5.72727H43.4702V14.527H43.3434L37.3327 5.72727H34.1559V21H37.8473V12.1854H37.9442L44.022 21H47.1541ZM56.3584 16.9134L52.9429 5.72727H48.8115L53.9646 21H58.879L64.032 5.72727H59.9007L56.4852 16.9134H56.3584ZM69.3678 21V5.72727H65.6764V21H69.3678ZM71.6852 21H77.3304C78.8816 21 80.2214 20.6967 81.35 20.0902C82.4785 19.4787 83.3461 18.6012 83.9526 17.4577C84.5641 16.3143 84.8699 14.9471 84.8699 13.3562C84.8699 11.7702 84.5641 10.408 83.9526 9.26953C83.3411 8.12607 82.4711 7.25107 81.3425 6.64453C80.2189 6.03303 78.8791 5.72727 77.323 5.72727H71.6852V21ZM77.1887 17.853H75.3766V8.87429H77.1365C78.0115 8.87429 78.7473 9.02095 79.3439 9.31428C79.9455 9.60263 80.4004 10.0749 80.7086 10.7312C81.0169 11.3825 81.171 12.2575 81.171 13.3562C81.171 14.4549 81.0169 15.3349 80.7086 15.9961C80.4054 16.6523 79.9554 17.1271 79.3588 17.4205C78.7672 17.7088 78.0439 17.853 77.1887 17.853ZM90.7164 21V5.72727H87.025V21H90.7164ZM92.3701 21H96.3374L97.3421 17.7933H102.617L103.623 21H107.591L102.438 5.72727H97.5232L92.3701 21ZM101.736 14.9893L100.036 9.57528H99.917L98.2207 14.9893H101.736Z" fill="#1CC600"/>
</svg>
